<svg width="20.000000" height="20.000000" viewBox="0 0 20 20" fill="none" xmlns="http://www.w3.org/2000/svg" xmlns:xlink="http://www.w3.org/1999/xlink">
	<desc>
			Created with Pixso.
	</desc>
	<defs/>
	<path id="Vector" d="M18.8247 10.7273L19.9938 4.29907C20.0039 4.24365 20.0016 4.18652 19.9873 4.13208C19.9729 4.07764 19.9468 4.0271 19.9106 3.98389C19.8745 3.94067 19.8293 3.90576 19.7783 3.88184C19.7273 3.85815 19.6716 3.8457 19.6154 3.8457L3.78247 3.8457L3.25562 0.947266C3.2074 0.681396 3.06726 0.440918 2.85974 0.267822C2.65222 0.0947266 2.3905 -0.000244141 2.12024 0L0.384644 0C0.282593 0 0.184814 0.0405273 0.112671 0.112549C0.0405273 0.184814 0 0.282471 0 0.384521C0 0.486572 0.0405273 0.584473 0.112671 0.656494C0.184814 0.728516 0.282593 0.769043 0.384644 0.769043L2.12024 0.769043C2.21033 0.769043 2.29749 0.800781 2.3667 0.858398C2.43591 0.916016 2.48254 0.996338 2.49866 1.08496L5.17944 15.8269C4.80237 16.1016 4.51733 16.4839 4.36194 16.9236C4.20654 17.3633 4.18811 17.8398 4.30896 18.2903C4.42981 18.7407 4.68445 19.144 5.03906 19.447C5.39368 19.7498 5.83191 19.9382 6.29578 19.9873C6.75964 20.0361 7.22742 19.9436 7.63757 19.7214C8.04773 19.4993 8.38086 19.158 8.59314 18.7427C8.80542 18.3274 8.88696 17.8577 8.8269 17.395C8.76685 16.9326 8.56799 16.499 8.25659 16.1519L14.8203 16.1519C14.4683 16.5454 14.2621 17.0481 14.2361 17.5754C14.2101 18.103 14.366 18.6233 14.6776 19.0496C14.9893 19.4761 15.4377 19.7825 15.9482 19.918C16.4587 20.0532 17.0001 20.0095 17.4822 19.7937C17.9642 19.5779 18.3575 19.2034 18.5966 18.7324C18.8356 18.2615 18.9056 17.7229 18.7952 17.2063C18.6847 16.6899 18.4003 16.2273 17.9895 15.8953C17.5787 15.5632 17.0665 15.3823 16.5385 15.3828L5.88037 15.3828L5.32092 12.3062L16.9329 12.3062C17.3832 12.3064 17.8193 12.1484 18.1652 11.8599C18.5109 11.5713 18.7444 11.1704 18.8247 10.7273ZM8.0769 17.6902C8.0769 17.9944 7.98669 18.2917 7.81763 18.5447C7.64856 18.7976 7.40833 18.9949 7.1272 19.1113C6.84607 19.2278 6.53674 19.2583 6.23828 19.1987C5.93982 19.1394 5.66577 18.9929 5.45056 18.7778C5.23547 18.5627 5.08887 18.2886 5.02954 17.9902C4.97021 17.6919 5.00061 17.3826 5.11707 17.1016C5.23352 16.8203 5.43079 16.5801 5.68372 16.4111C5.93677 16.2422 6.23413 16.1519 6.53845 16.1519C6.94629 16.1523 7.3374 16.3145 7.62585 16.6028C7.91418 16.8914 8.07642 17.2822 8.0769 17.6902ZM18.0769 17.6902C18.0769 17.9944 17.9867 18.2917 17.8176 18.5447C17.6486 18.7976 17.4083 18.9949 17.1272 19.1113C16.8461 19.2278 16.5367 19.2583 16.2383 19.1987C15.9398 19.1394 15.6658 18.9929 15.4506 18.7778C15.2355 18.5627 15.0889 18.2886 15.0295 17.9902C14.9702 17.6919 15.0006 17.3826 15.1171 17.1016C15.2335 16.8203 15.4307 16.5801 15.6837 16.4111C15.9366 16.2422 16.2341 16.1519 16.5385 16.1519C16.9463 16.1523 17.3374 16.3145 17.6257 16.6028C17.9142 16.8914 18.0764 17.2822 18.0769 17.6902ZM3.92236 4.61475L19.1545 4.61475L18.068 10.5898C18.0198 10.8557 17.8796 11.0962 17.6722 11.2693C17.4647 11.4424 17.2031 11.5371 16.9329 11.5371L5.18115 11.5371L3.92236 4.61475Z" fill="#323232" fill-opacity="1.000000" fill-rule="nonzero"/>
</svg>
