<svg width="30.000000" height="30.449951" viewBox="0 0 30 30.45" fill="none" xmlns="http://www.w3.org/2000/svg" xmlns:xlink="http://www.w3.org/1999/xlink">
	<desc>
			Created with Pixso.
	</desc>
	<defs/>
	<path id="Vector" d="M26.7857 0L3.21429 0C2.36182 0 1.54425 0.34375 0.941467 0.955566C0.338623 1.56738 0 2.39722 0 3.26245L0 27.1875C0 28.0527 0.338623 28.8826 0.941467 29.4944C1.54425 30.1063 2.36182 30.45 3.21429 30.45L12.4052 30.45L12.4052 20.0977L8.1864 20.0977L8.1864 15.225L12.4052 15.225L12.4052 11.5112C12.4052 7.28699 14.8828 4.95361 18.6777 4.95361C20.4951 4.95361 22.3955 5.28247 22.3955 5.28247L22.3955 9.42859L20.3016 9.42859C18.2384 9.42859 17.5948 10.7281 17.5948 12.061L17.5948 15.225L22.2007 15.225L21.4641 20.0977L17.5948 20.0977L17.5948 30.45L26.7857 30.45C27.6382 30.45 28.4557 30.1063 29.0585 29.4944C29.6614 28.8826 30 28.0527 30 27.1875L30 3.26245C30 2.39722 29.6614 1.56738 29.0585 0.955566C28.4557 0.34375 27.6382 0 26.7857 0Z" fill="#F1F1F1" fill-opacity="1.000000" fill-rule="nonzero"/>
</svg>
