<svg width="30.000000" height="30.449951" viewBox="0 0 30 30.45" fill="none" xmlns="http://www.w3.org/2000/svg" xmlns:xlink="http://www.w3.org/1999/xlink">
	<desc>
			Created with Pixso.
	</desc>
	<defs/>
	<path id="Vector" d="M15 11.5995C14.2936 11.5999 13.6031 11.8126 13.0159 12.2112C12.4287 12.6097 11.9711 13.176 11.701 13.8385C11.4308 14.501 11.3603 15.23 11.4982 15.9331C11.6362 16.6364 11.9765 17.2822 12.4761 17.7891C12.9757 18.2959 13.6122 18.6411 14.305 18.7809C14.9978 18.9207 15.7159 18.8488 16.3685 18.5743C17.0211 18.2999 17.5789 17.8352 17.9713 17.239C18.3638 16.6428 18.5732 15.942 18.5732 15.225C18.5725 14.2634 18.1958 13.3416 17.5258 12.6617C16.8558 11.9819 15.9473 11.5999 15 11.5995ZM23.3511 8.81287C23.1693 8.34509 22.8947 7.92029 22.5444 7.5647C22.1941 7.20923 21.7756 6.93042 21.3148 6.74585C19.9085 6.1825 16.5602 6.30884 15 6.30884C13.4398 6.30884 10.0948 6.17773 8.68457 6.74585C8.22375 6.93042 7.80524 7.20923 7.45496 7.5647C7.10461 7.92029 6.83008 8.34509 6.64819 8.81287C6.09375 10.2401 6.21765 13.642 6.21765 15.2244C6.21765 16.8066 6.09375 20.2043 6.65088 21.6365C6.8327 22.1042 7.1073 22.5291 7.45764 22.8846C7.80792 23.2401 8.22644 23.5188 8.68726 23.7034C10.0935 24.2668 13.4417 24.1405 15.0027 24.1405C16.5636 24.1405 19.9072 24.2716 21.3174 23.7034C21.7783 23.5188 22.1968 23.2401 22.5471 22.8846C22.8974 22.5291 23.1719 22.1042 23.3538 21.6365C23.913 20.2091 23.7844 16.8074 23.7844 15.225C23.7844 13.6427 23.913 10.2456 23.3538 8.81348L23.3511 8.81287ZM15 20.7985C13.9139 20.7985 12.8523 20.4716 11.9493 19.8591C11.0463 19.2467 10.3425 18.3762 9.92694 17.3579C9.51129 16.3395 9.40259 15.2189 9.61444 14.1377C9.82629 13.0565 10.3493 12.0635 11.1172 11.2839C11.8852 10.5045 12.8636 9.97375 13.9288 9.75867C14.9939 9.54358 16.098 9.65393 17.1013 10.0758C18.1047 10.4977 18.9623 11.212 19.5657 12.1285C20.169 13.0452 20.4911 14.1227 20.4911 15.225C20.4919 15.9572 20.3505 16.6824 20.0749 17.3589C19.7993 18.0355 19.3948 18.6503 18.8848 19.168C18.3747 19.6858 17.769 20.0962 17.1024 20.376C16.4358 20.6558 15.7214 20.7993 15 20.7985ZM20.7174 10.7186C20.4639 10.7188 20.216 10.6426 20.0051 10.4998C19.7943 10.3569 19.6299 10.1538 19.5328 9.91602C19.4357 9.67834 19.4102 9.41675 19.4596 9.16443C19.509 8.91199 19.631 8.68005 19.8102 8.49805C19.9894 8.31604 20.2178 8.19214 20.4664 8.14185C20.7151 8.09167 20.9728 8.11731 21.2071 8.21582C21.4413 8.31421 21.6415 8.48096 21.7824 8.69495C21.9233 8.90894 21.9984 9.1604 21.9984 9.41772C21.9991 9.58862 21.9666 9.75793 21.9027 9.91602C21.8387 10.0741 21.7448 10.2179 21.626 10.339C21.5072 10.4601 21.366 10.5563 21.2106 10.6218C21.0551 10.6875 20.8884 10.7213 20.7201 10.7214L20.7174 10.7186ZM26.7858 0L3.21429 0C2.36182 0 1.54425 0.34375 0.941467 0.955566C0.338623 1.56738 0 2.39722 0 3.26245L0 27.1875C0 28.0527 0.338623 28.8826 0.941467 29.4944C1.54425 30.1063 2.36182 30.45 3.21429 30.45L26.7858 30.45C27.6382 30.45 28.4558 30.1063 29.0586 29.4944C29.6614 28.8826 30 28.0527 30 27.1875L30 3.26245C30 2.39722 29.6614 1.56738 29.0586 0.955566C28.4558 0.34375 27.6382 0 26.7858 0ZM25.6393 19.7109C25.5529 21.453 25.1611 22.9966 23.9083 24.2649C22.6553 25.5332 21.1359 25.939 19.4216 26.0219C17.6531 26.1232 12.3509 26.1232 10.5823 26.0219C8.86609 25.9342 7.35065 25.5359 6.09576 24.2649C4.84082 22.9938 4.44641 21.4496 4.36475 19.7109C4.26495 17.9152 4.26495 12.5327 4.36475 10.739C4.45111 8.99707 4.8382 7.45349 6.09576 6.18518C7.35333 4.91687 8.87274 4.51587 10.5823 4.43286C12.3509 4.33167 17.6531 4.33167 19.4216 4.43286C21.1379 4.52063 22.658 4.91895 23.9083 6.18994C25.1584 7.46094 25.5576 9.00513 25.6393 10.7472C25.739 12.5361 25.739 17.9138 25.6393 19.7109Z" fill="#F1F1F1" fill-opacity="1.000000" fill-rule="nonzero"/>
</svg>
