<svg width="20.000000" height="18.000000" viewBox="0 0 20 18" fill="none" xmlns="http://www.w3.org/2000/svg" xmlns:xlink="http://www.w3.org/1999/xlink">
	<desc>
			Created with Pixso.
	</desc>
	<defs/>
	<path id="Vector" d="M15 0C12.9169 0 11.3406 1.16943 10 2.39136C8.72253 1.09448 7.08313 0 5 0C2.06628 0 0 2.41284 0 5.0437C0 6.45508 0.60437 7.47217 1.26624 8.42676L9.03687 17.3376C9.90942 18.2207 10.0737 18.2207 10.9463 17.3376L18.7344 8.42676C19.5125 7.47217 20 6.45508 20 5.0437C20 2.41284 17.9337 0 15 0ZM17.5 8.1792L10 16.7388L2.5 8.14404C1.60315 6.95142 1.25 6.14673 1.25 5.0437C1.25 2.98853 2.78442 1.13818 5 1.12085C6.82251 1.10645 8.88818 2.88672 10 4.229C11.0825 2.93335 13.1775 1.12085 15 1.12085C17.1569 1.12085 18.75 2.98853 18.75 5.0437C18.75 6.14673 18.4706 7.01123 17.5 8.1792Z" fill="#323232" fill-opacity="1.000000" fill-rule="nonzero"/>
</svg>
