<svg width="20.000000" height="20.000000" viewBox="0 0 20 20" fill="none" xmlns="http://www.w3.org/2000/svg" xmlns:xlink="http://www.w3.org/1999/xlink">
	<desc>
			Created with Pixso.
	</desc>
	<defs>
		<clipPath id="clip4_261">
			<rect id="fluent:search-48-regular" width="20.000000" height="20.000000" fill="white" fill-opacity="0"/>
		</clipPath>
	</defs>
	<rect id="fluent:search-48-regular" width="20.000000" height="20.000000" fill="#FFFFFF" fill-opacity="0"/>
	<g clip-path="url(#clip4_261)">
		<path id="Vector" d="M7.77771 0C3.48218 0 0 3.48218 0 7.77783C0 12.0732 3.48218 15.5554 7.77771 15.5554C9.67554 15.5554 11.4144 14.876 12.7644 13.7466L18.8143 19.7966C18.8789 19.8611 18.9554 19.9121 19.0397 19.947C19.1239 19.9819 19.2142 20 19.3054 20C19.3967 20 19.4869 19.9819 19.5713 19.947C19.6555 19.9121 19.7321 19.8611 19.7966 19.7966C19.8611 19.7322 19.9122 19.6555 19.9471 19.5713C19.9821 19.4871 20 19.3967 20 19.3054C20 19.2144 19.9821 19.124 19.9471 19.0398C19.9122 18.9553 19.8611 18.8789 19.7966 18.8145L13.7466 12.7644C14.9176 11.3669 15.5581 9.60107 15.5555 7.77783C15.5555 3.48218 12.0732 0 7.77771 0ZM1.38892 7.77783C1.38892 4.24951 4.24939 1.38892 7.77771 1.38892C11.306 1.38892 14.1666 4.24951 14.1666 7.77783C14.1666 11.3062 11.306 14.1665 7.77771 14.1665C4.24939 14.1665 1.38892 11.3062 1.38892 7.77783Z" fill="#323232" fill-opacity="1.000000" fill-rule="nonzero"/>
	</g>
</svg>
