<svg width="30.000000" height="34.800049" viewBox="0 0 30 34.8" fill="none" xmlns="http://www.w3.org/2000/svg" xmlns:xlink="http://www.w3.org/1999/xlink">
	<desc>
			Created with Pixso.
	</desc>
	<defs>
		<clipPath id="clip10_124">
			<rect id="fa-brands:twitter-square" width="30.000000" height="34.799999" fill="white" fill-opacity="0"/>
		</clipPath>
	</defs>
	<rect id="fa-brands:twitter-square" width="30.000000" height="34.799999" fill="#FFFFFF" fill-opacity="0"/>
	<g clip-path="url(#clip10_124)">
		<path id="Vector" d="M26.7858 2.1748L3.21423 2.1748C1.4397 2.1748 0 3.63611 0 5.43726L0 29.3623C0 31.1635 1.4397 32.6248 3.21423 32.6248L26.7858 32.6248C28.5603 32.6248 30 31.1635 30 29.3623L30 5.43726C30 3.63611 28.5603 2.1748 26.7858 2.1748ZM23.5111 12.9683C23.5245 13.1586 23.5245 13.3557 23.5245 13.546C23.5245 19.4388 19.1049 26.2289 11.0291 26.2289C8.53796 26.2289 6.22766 25.4949 4.28577 24.2307C4.64062 24.2715 4.98218 24.285 5.34375 24.285C7.39954 24.285 9.28796 23.5781 10.7947 22.382C8.86609 22.3412 7.24548 21.0565 6.6897 19.2893C7.36609 19.3912 7.97546 19.3912 8.67188 19.2078C6.66296 18.7932 5.15625 16.9988 5.15625 14.8306L5.15625 14.7762C5.73889 15.1093 6.42188 15.3131 7.13843 15.3403C6.53601 14.9336 6.04224 14.382 5.70093 13.7344C5.35974 13.0868 5.18188 12.3636 5.18298 11.6293C5.18298 10.8 5.39734 10.0388 5.77905 9.37952C7.94202 12.0846 11.1897 13.8518 14.8326 14.0421C14.2098 11.0176 16.4397 8.56384 19.1183 8.56384C20.3839 8.56384 21.5223 9.10083 22.3259 9.97083C23.317 9.78052 24.2678 9.40674 25.1116 8.89697C24.7834 9.93005 24.0938 10.8 23.183 11.3506C24.067 11.2554 24.9241 11.0039 25.7142 10.6573C25.1183 11.5477 24.3683 12.3362 23.5111 12.9683Z" fill="#F1F1F1" fill-opacity="1.000000" fill-rule="nonzero"/>
	</g>
</svg>
